<svg width="24" height="23" viewBox="0 0 24 23" fill="none" xmlns="http://www.w3.org/2000/svg">
<path d="M23.9 11.4371C23.507 8.41248 21.9772 5.65099 19.6213 3.7139C17.2654 1.77681 14.2603 0.80947 11.2168 1.00851C8.17335 1.20754 5.31984 2.55802 3.23631 4.78544C1.15279 7.01286 -0.00440231 9.95007 -4.80163e-05 13.0001C-0.00581242 14.6326 0.32501 16.2488 0.971767 17.7477C1.61852 19.2467 2.56733 20.5962 3.75895 21.7121C4.67029 22.5558 5.87111 23.017 7.11295 23.0001H16.88C18.1919 23.0031 19.4524 22.4898 20.389 21.5711C21.7237 20.2725 22.7362 18.6799 23.3459 16.9203C23.9555 15.1607 24.1452 13.283 23.9 11.4371ZM7.47195 19.6611C7.38518 19.7597 7.27982 19.8403 7.16188 19.8983C7.04394 19.9562 6.91574 19.9903 6.7846 19.9987C6.65347 20.007 6.52198 19.9895 6.39763 19.947C6.27329 19.9045 6.15855 19.8379 6.05995 19.7511C4.68554 18.5444 3.71172 16.9473 3.26839 15.1729C2.82506 13.3985 2.9333 11.5311 3.57867 9.81978C4.22404 8.10847 5.37585 6.63461 6.88047 5.59481C8.3851 4.55501 10.171 3.99869 12 4.00006C12.7585 4.00029 13.514 4.09536 14.249 4.28306C14.3762 4.31589 14.4957 4.37346 14.6007 4.45249C14.7057 4.53152 14.7941 4.63046 14.8609 4.74365C14.9277 4.85685 14.9715 4.98208 14.9899 5.11221C15.0082 5.24234 15.0008 5.37481 14.968 5.50206C14.9351 5.62931 14.8775 5.74885 14.7985 5.85385C14.7195 5.95885 14.6206 6.04726 14.5074 6.11402C14.3942 6.18079 14.2689 6.2246 14.1388 6.24297C14.0087 6.26134 13.8762 6.25389 13.749 6.22106C12.2255 5.82618 10.6133 5.9567 9.17317 6.5915C7.73303 7.22629 6.54909 8.32827 5.81278 9.71924C5.07647 11.1102 4.83083 12.7089 5.11558 14.2567C5.40033 15.8046 6.19882 17.2112 7.38195 18.2491C7.48063 18.3358 7.56123 18.4412 7.61917 18.5591C7.6771 18.6771 7.71122 18.8053 7.71958 18.9364C7.72794 19.0675 7.71037 19.199 7.66788 19.3234C7.62539 19.4477 7.55881 19.5625 7.47195 19.6611ZM12 15.0001C11.7133 15.0038 11.4291 14.9459 11.1668 14.8303C10.9044 14.7146 10.67 14.5439 10.4794 14.3297C10.2888 14.1155 10.1465 13.8629 10.0622 13.5889C9.97777 13.3148 9.95329 13.0259 9.99037 12.7416C10.0274 12.4573 10.1252 12.1843 10.277 11.9411C10.4289 11.6979 10.6312 11.4902 10.8704 11.332C11.1095 11.1739 11.3799 11.069 11.6631 11.0245C11.9463 10.98 12.2358 10.9969 12.512 11.0741L16.293 7.29306C16.3852 7.19755 16.4955 7.12137 16.6175 7.06896C16.7396 7.01655 16.8708 6.98896 17.0036 6.98781C17.1363 6.98666 17.268 7.01196 17.3909 7.06224C17.5138 7.11252 17.6255 7.18677 17.7193 7.28066C17.8132 7.37456 17.8875 7.48621 17.9378 7.60911C17.9881 7.732 18.0134 7.86368 18.0122 7.99646C18.011 8.12924 17.9835 8.26046 17.9311 8.38246C17.8786 8.50447 17.8025 8.61481 17.707 8.70706L13.926 12.4881C14.0093 12.7838 14.0226 13.095 13.9646 13.3968C13.9067 13.6985 13.7792 13.9827 13.5922 14.2265C13.4052 14.4704 13.164 14.6673 12.8875 14.8016C12.6111 14.9358 12.3072 15.0038 12 15.0001ZM17.94 19.7511C17.74 19.9189 17.4824 20.0019 17.222 19.9823C16.9617 19.9628 16.7194 19.8422 16.5468 19.6463C16.3742 19.4505 16.285 19.1949 16.2983 18.9342C16.3116 18.6735 16.4263 18.4283 16.618 18.2511C17.5903 17.3983 18.3071 16.2925 18.6886 15.0567C19.0701 13.8209 19.1014 12.5036 18.779 11.2511C18.7126 10.9941 18.7512 10.7213 18.886 10.4927C19.0208 10.264 19.241 10.0984 19.498 10.0321C19.7549 9.96576 20.0278 10.0043 20.2564 10.1391C20.485 10.2739 20.6506 10.4941 20.717 10.7511C20.9047 11.486 20.9998 12.2415 21 13.0001C20.9985 14.2781 20.7248 15.5412 20.1972 16.7052C19.6696 17.8692 18.9001 18.9076 17.94 19.7511Z" fill="black"/>
</svg>
