<svg width="24" height="24" viewBox="0 0 24 24" fill="none" xmlns="http://www.w3.org/2000/svg">
<path d="M18.5 2H18V1.5C18 0.671 17.328 0 16.5 0C15.672 0 15 0.671 15 1.5V2H9V1.5C9 0.671 8.328 0 7.5 0C6.672 0 6 0.671 6 1.5V2H5.5C2.468 2 0 4.467 0 7.5V18.5C0 21.533 2.468 24 5.5 24H18.5C21.532 24 24 21.533 24 18.5V7.5C24 4.467 21.532 2 18.5 2ZM18.5 21H5.5C4.121 21 3 19.878 3 18.5V9H21V18.5C21 19.878 19.879 21 18.5 21ZM10 12.5V14.5C10 15.328 9.328 16 8.5 16H6.5C5.672 16 5 15.328 5 14.5V12.5C5 11.672 5.672 11 6.5 11H8.5C9.328 11 10 11.672 10 12.5Z" fill="black"/>
</svg>
