<svg width="69" height="70" viewBox="0 0 69 70" fill="none" xmlns="http://www.w3.org/2000/svg">
<g filter="url(#filter0_d_39_142)">
<path d="M34.0442 14.9406C25.5205 14.9406 18.6452 21.961 18.6452 30.6647C18.6452 39.3683 25.5205 46.3887 34.0442 46.3887C42.568 46.3887 49.4432 39.3683 49.4432 30.6647C49.4432 21.961 42.568 14.9406 34.0442 14.9406ZM34.0442 40.8873C28.5359 40.8873 24.0328 36.3029 24.0328 30.6647C24.0328 25.0264 28.5225 20.442 34.0442 20.442C39.5659 20.442 44.0556 25.0264 44.0556 30.6647C44.0556 36.3029 39.5525 40.8873 34.0442 40.8873ZM53.6649 14.2974C53.6649 16.3365 52.0567 17.965 50.0732 17.965C48.0762 17.965 46.4814 16.3228 46.4814 14.2974C46.4814 12.272 48.0896 10.6298 50.0732 10.6298C52.0567 10.6298 53.6649 12.272 53.6649 14.2974ZM63.8639 18.0197C63.6361 13.1068 62.5371 8.75498 59.0124 5.16951C55.501 1.58404 51.2391 0.461869 46.4278 0.215539C41.469 -0.0718462 26.606 -0.0718462 21.6472 0.215539C16.8493 0.448184 12.5874 1.57035 9.06265 5.15582C5.53789 8.74129 4.45232 13.0931 4.21108 18.006C3.92964 23.0695 3.92964 38.2461 4.21108 43.3096C4.43892 48.2225 5.53789 52.5743 9.06265 56.1598C12.5874 59.7453 16.8359 60.8674 21.6472 61.1138C26.606 61.4011 41.469 61.4011 46.4278 61.1138C51.2391 60.8811 55.501 59.759 59.0124 56.1598C62.5237 52.5743 63.6227 48.2225 63.8639 43.3096C64.1454 38.2461 64.1454 23.0832 63.8639 18.0197ZM57.4577 48.7425C56.4124 51.4248 54.3886 53.4912 51.7484 54.5723C47.7948 56.1735 38.4133 55.804 34.0442 55.804C29.6751 55.804 20.2802 56.1598 16.34 54.5723C13.7132 53.5049 11.6895 51.4385 10.6307 48.7425C9.06265 44.7055 9.42451 35.126 9.42451 30.6647C9.42451 26.2033 9.07605 16.6102 10.6307 12.5868C11.6761 9.90452 13.6998 7.83808 16.34 6.75697C20.2936 5.15582 29.6751 5.52532 34.0442 5.52532C38.4133 5.52532 47.8082 5.16951 51.7484 6.75697C54.3752 7.8244 56.3989 9.89083 57.4577 12.5868C59.0258 16.6238 58.6639 26.2033 58.6639 30.6647C58.6639 35.126 59.0258 44.7191 57.4577 48.7425Z" fill="white"/>
</g>
<defs>
<filter id="filter0_d_39_142" x="0" y="0" width="68.075" height="69.3293" filterUnits="userSpaceOnUse" color-interpolation-filters="sRGB">
<feFlood flood-opacity="0" result="BackgroundImageFix"/>
<feColorMatrix in="SourceAlpha" type="matrix" values="0 0 0 0 0 0 0 0 0 0 0 0 0 0 0 0 0 0 127 0" result="hardAlpha"/>
<feOffset dy="4"/>
<feGaussianBlur stdDeviation="2"/>
<feComposite in2="hardAlpha" operator="out"/>
<feColorMatrix type="matrix" values="0 0 0 0 0 0 0 0 0 0 0 0 0 0 0 0 0 0 0.25 0"/>
<feBlend mode="normal" in2="BackgroundImageFix" result="effect1_dropShadow_39_142"/>
<feBlend mode="normal" in="SourceGraphic" in2="effect1_dropShadow_39_142" result="shape"/>
</filter>
</defs>
</svg>
