<svg width="19" height="16" viewBox="0 0 19 16" fill="none" xmlns="http://www.w3.org/2000/svg">
<path d="M17.6835 4.818L13.8015 0.939003C13.2155 0.3533 12.2657 0.353534 11.6799 0.939519C11.0942 1.5255 11.0945 2.47533 11.6805 3.06103L15.0924 6.47203L1.50146 6.50002C0.673043 6.50002 0.00146484 7.1716 0.00146484 8.00002C0.00146484 8.82844 0.673043 9.50002 1.50146 9.50002L15.1475 9.47503L11.6805 12.942C11.116 13.5484 11.15 14.4976 11.7563 15.062C12.3326 15.5985 13.2257 15.5981 13.8015 15.061L17.6805 11.182C19.4379 9.42469 19.4379 6.57544 17.6805 4.8181L17.6805 4.81805L17.6835 4.818Z" fill="black"/>
</svg>
