<svg width="24" height="24" viewBox="0 0 24 24" fill="none" xmlns="http://www.w3.org/2000/svg">
<path d="M23.56 21.4452L18.9149 16.7981C22.3906 12.1533 21.4429 5.57034 16.7981 2.09462C12.1533 -1.3811 5.57034 -0.433388 2.09462 4.21139C-1.3811 8.85616 -0.433388 15.4392 4.21139 18.9149C7.94245 21.7069 13.067 21.7069 16.7981 18.9149L21.4452 23.562C22.0292 24.146 22.976 24.146 23.56 23.562C24.144 22.978 24.144 22.0312 23.56 21.4472L23.56 21.4452ZM10.5435 18.0179C6.41542 18.0179 3.06901 14.6715 3.06901 10.5435C3.06901 6.41542 6.41542 3.06901 10.5435 3.06901C14.6715 3.06901 18.0179 6.41542 18.0179 10.5435C18.0136 14.6697 14.6697 18.0136 10.5435 18.0179Z" fill="black"/>
</svg>
