<svg width="24" height="23" viewBox="0 0 24 23" fill="none" xmlns="http://www.w3.org/2000/svg">
<path d="M23.9001 11.4371C23.5072 8.41248 21.9773 5.65099 19.6214 3.7139C17.2655 1.77681 14.2605 0.80947 11.217 1.00851C8.17347 1.20754 5.31996 2.55802 3.23644 4.78544C1.15291 7.01286 -0.00428024 9.95007 7.4054e-05 13.0001C-0.00569035 14.6326 0.325132 16.2488 0.971889 17.7477C1.61865 19.2467 2.56745 20.5962 3.75907 21.7121C4.67041 22.5558 5.87123 23.017 7.11307 23.0001H16.8801C18.192 23.0031 19.4525 22.4898 20.3891 21.5711C21.7238 20.2725 22.7364 18.6799 23.346 16.9203C23.9556 15.1607 24.1453 13.283 23.9001 11.4371ZM7.47207 19.6611C7.3853 19.7597 7.27994 19.8403 7.162 19.8983C7.04406 19.9562 6.91586 19.9903 6.78473 19.9987C6.65359 20.007 6.5221 19.9895 6.39776 19.947C6.27342 19.9045 6.15867 19.8379 6.06007 19.7511C4.68566 18.5444 3.71184 16.9473 3.26851 15.1729C2.82519 13.3985 2.93342 11.5311 3.57879 9.81978C4.22416 8.10847 5.37597 6.63461 6.8806 5.59481C8.38522 4.55501 10.1711 3.99869 12.0001 4.00006C12.7586 4.00029 13.5141 4.09536 14.2491 4.28306C14.3763 4.31589 14.4959 4.37346 14.6009 4.45249C14.7059 4.53152 14.7943 4.63046 14.861 4.74365C14.9278 4.85685 14.9716 4.98208 14.99 5.11221C15.0084 5.24234 15.0009 5.37481 14.9681 5.50206C14.9352 5.62931 14.8777 5.74885 14.7986 5.85385C14.7196 5.95885 14.6207 6.04726 14.5075 6.11402C14.3943 6.18079 14.2691 6.2246 14.1389 6.24297C14.0088 6.26134 13.8763 6.25389 13.7491 6.22106C12.2256 5.82618 10.6134 5.9567 9.17329 6.5915C7.73315 7.22629 6.54922 8.32827 5.81291 9.71924C5.0766 11.1102 4.83096 12.7089 5.11571 14.2567C5.40045 15.8046 6.19895 17.2112 7.38207 18.2491C7.48075 18.3358 7.56136 18.4412 7.61929 18.5591C7.67722 18.6771 7.71134 18.8053 7.7197 18.9364C7.72806 19.0675 7.71049 19.199 7.668 19.3234C7.62551 19.4477 7.55893 19.5625 7.47207 19.6611ZM12.0001 15.0001C11.7134 15.0038 11.4292 14.9459 11.1669 14.8303C10.9046 14.7146 10.6701 14.5439 10.4796 14.3297C10.289 14.1155 10.1467 13.8629 10.0623 13.5889C9.97789 13.3148 9.95341 13.0259 9.99049 12.7416C10.0276 12.4573 10.1253 12.1843 10.2772 11.9411C10.429 11.6979 10.6313 11.4902 10.8705 11.332C11.1096 11.1739 11.38 11.069 11.6632 11.0245C11.9465 10.98 12.2359 10.9969 12.5121 11.0741L16.2931 7.29306C16.3853 7.19755 16.4957 7.12137 16.6177 7.06896C16.7397 7.01655 16.8709 6.98896 17.0037 6.98781C17.1365 6.98666 17.2681 7.01196 17.391 7.06224C17.5139 7.11252 17.6256 7.18677 17.7195 7.28066C17.8134 7.37456 17.8876 7.48621 17.9379 7.60911C17.9882 7.732 18.0135 7.86368 18.0123 7.99646C18.0112 8.12924 17.9836 8.26046 17.9312 8.38246C17.8788 8.50447 17.8026 8.61481 17.7071 8.70706L13.9261 12.4881C14.0095 12.7838 14.0227 13.095 13.9648 13.3968C13.9068 13.6985 13.7793 13.9827 13.5923 14.2265C13.4053 14.4704 13.1641 14.6673 12.8877 14.8016C12.6113 14.9358 12.3073 15.0038 12.0001 15.0001ZM17.9401 19.7511C17.7401 19.9189 17.4825 20.0019 17.2222 19.9823C16.9619 19.9628 16.7195 19.8422 16.5469 19.6463C16.3743 19.4505 16.2851 19.1949 16.2984 18.9342C16.3117 18.6735 16.4264 18.4283 16.6181 18.2511C17.5904 17.3983 18.3072 16.2925 18.6887 15.0567C19.0703 13.8209 19.1015 12.5036 18.7791 11.2511C18.7128 10.9941 18.7513 10.7213 18.8861 10.4927C19.0209 10.264 19.2411 10.0984 19.4981 10.0321C19.7551 9.96576 20.0279 10.0043 20.2565 10.1391C20.4851 10.2739 20.6508 10.4941 20.7171 10.7511C20.9048 11.486 20.9999 12.2415 21.0001 13.0001C20.9986 14.2781 20.7249 15.5412 20.1973 16.7052C19.6697 17.8692 18.9002 18.9076 17.9401 19.7511Z" fill="white"/>
</svg>
