<svg width="48" height="48" viewBox="0 0 48 48" fill="none" xmlns="http://www.w3.org/2000/svg">
<rect width="48" height="48" rx="24" fill="#F1F1F1"/>
<path d="M23.625 23.25C25.8415 23.25 27.9671 22.3413 29.5344 20.7238C31.1017 19.1063 31.9821 16.9125 31.9821 14.625C31.9821 12.3375 31.1017 10.1437 29.5344 8.5262C27.9671 6.9087 25.8415 6 23.625 6C21.4085 6 19.2829 6.9087 17.7156 8.5262C16.1483 10.1437 15.2679 12.3375 15.2679 14.625C15.2679 16.9125 16.1483 19.1063 17.7156 20.7238C19.2829 22.3413 21.4085 23.25 23.625 23.25ZM20.6412 26.4844C14.2102 26.4844 9 31.8615 9 38.4987C9 39.6038 9.86836 40.5 10.9391 40.5H36.3109C37.3816 40.5 38.25 39.6038 38.25 38.4987C38.25 31.8615 33.0398 26.4844 26.6088 26.4844H20.6412Z" fill="black"/>
</svg>
